<?xml version="1.0" encoding="iso-8859-1"?>
<!-- Generator: Adobe Illustrator 19.0.0, SVG Export Plug-In . SVG Version: 6.00 Build 0)  -->
<svg xmlns="http://www.w3.org/2000/svg" xmlns:xlink="http://www.w3.org/1999/xlink" version="1.1" id="Layer_1" x="0px" y="0px" viewBox="0 0 310.25 310.25" style="enable-background:new 0 0 310.25 310.25;" xml:space="preserve" width="512" height="512">
<g>
	<path style="fill:#1C7287;" d="M185.3,137c-8.284,0-15-6.716-15-15v-0.74c0-19.994-16.266-36.26-36.26-36.26H83.8   c-23.435,0-42.5-19.065-42.5-42.5S60.365,0,83.8,0h170.15c8.284,0,15,6.716,15,15s-6.716,15-15,15H83.8   c-6.893,0-12.5,5.607-12.5,12.5S76.907,55,83.8,55h50.24c36.536,0,66.26,29.724,66.26,66.26V122   C200.3,130.284,193.584,137,185.3,137z"/>
	<path style="fill:#165C6C;" d="M186.301,136.963c-8.284,0-16.001-6.679-16.001-14.963v-0.74c0-19.994-16.266-36.26-36.26-36.26   H83.8c-23.435,0-42.5-19.065-42.5-42.5S60.365,0,83.8,0h102.5v30H83.8c-6.893,0-12.5,5.607-12.5,12.5S76.907,55,83.8,55h50.24   c21.211,0,40.125,10.018,52.261,25.57V136.963z"/>
	<path style="fill:#32A5B9;" d="M186.858,115.358L186.858,115.358c33.946,0,61.464,27.518,61.464,61.464v88.884   c0,24.601-19.943,44.544-44.544,44.544h-33.841c-24.601,0-44.544-19.943-44.544-44.544v-88.884   C125.394,142.877,152.912,115.358,186.858,115.358z"/>
	<path style="fill:#2B8A9A;" d="M186.858,115.358L186.858,115.358L186.3,310.25h-16.362c-24.601,0-44.544-19.943-44.544-44.544   v-88.884C125.394,142.877,152.912,115.358,186.858,115.358z"/>
	<path style="fill:#E6E6E6;" d="M186.3,203c-8.284,0-15-6.716-15-15v-25c0-8.284,6.716-15,15-15s15,6.716,15,15v25   C201.3,196.284,194.584,203,186.3,203z"/>
	<path style="fill:#C4C8C4;" d="M186.3,203c-8.284,0-15-6.716-15-15v-25c0-8.284,6.716-15,15-15V203z"/>
</g>















</svg>
