<?xml version="1.0" encoding="UTF-8" standalone="no"?>
<!-- Created with Inkscape (http://www.inkscape.org/) -->

<svg
   width="140mm"
   height="100mm"
   viewBox="0 0 140 100"
   version="1.1"
   id="svg10547"
   inkscape:version="1.1.1 (3bf5ae0d25, 2021-09-20)"
   sodipodi:docname="nuts-logo.svg"
   inkscape:export-filename="/data/git/nuts/documentation/media/nuts-logo-1280.png"
   inkscape:export-xdpi="232.23"
   inkscape:export-ydpi="232.23"
   xmlns:inkscape="http://www.inkscape.org/namespaces/inkscape"
   xmlns:sodipodi="http://sodipodi.sourceforge.net/DTD/sodipodi-0.dtd"
   xmlns="http://www.w3.org/2000/svg"
   xmlns:svg="http://www.w3.org/2000/svg">
  <sodipodi:namedview
     id="namedview10549"
     pagecolor="#ffffff"
     bordercolor="#666666"
     borderopacity="1.0"
     inkscape:pageshadow="2"
     inkscape:pageopacity="0.0"
     inkscape:pagecheckerboard="0"
     inkscape:document-units="mm"
     showgrid="false"
     inkscape:zoom="0.64052329"
     inkscape:cx="211.54578"
     inkscape:cy="418.40789"
     inkscape:window-width="1680"
     inkscape:window-height="969"
     inkscape:window-x="0"
     inkscape:window-y="0"
     inkscape:window-maximized="1"
     inkscape:current-layer="layer1" />
  <defs
     id="defs10544" />
  <g
     inkscape:label="Layer 1"
     inkscape:groupmode="layer"
     id="layer1">
    <path
       id="rect3134-9"
       style="fill:#93d8e4;fill-opacity:1;stroke:none;stroke-width:0.309359"
       d="m 13.290284,17.206434 v 3.804433 a 5.8765506,5.9209428 0 0 1 0.202243,-0.02691 5.8765506,5.9209428 0 0 1 5.876494,5.920808 5.8765506,5.9209428 0 0 1 -0.0093,0.190468 h 4.082384 v -3.441919 a 5.8765503,5.9209425 0 0 1 -0.499659,0.02478 5.8765503,5.9209425 0 0 1 -5.876646,-5.920957 5.8765503,5.9209425 0 0 1 0.07199,-0.550743 z"
       inkscape:export-filename="/data/git/nuts/documentation/media/nuts-logo-1280.png"
       inkscape:export-xdpi="285.61627"
       inkscape:export-ydpi="285.61627" />
    <path
       id="rect3134-0"
       style="fill:#aae1c1;fill-opacity:1;stroke:none;stroke-width:0.309359"
       d="m 22.34883,26.466357 v 3.49511 a 5.8765506,5.9209428 0 0 1 0.145811,-0.0193 5.8765506,5.9209428 0 0 1 5.876644,5.920818 5.8765506,5.9209428 0 0 1 -0.02408,0.49221 h 4.153458 v -4.182244 a 5.8765503,5.9209425 0 0 1 -0.483492,0.02391 5.8765503,5.9209425 0 0 1 -5.851629,-5.730496 z"
       inkscape:export-filename="/data/git/nuts/documentation/media/nuts-logo-1280.png"
       inkscape:export-xdpi="285.61627"
       inkscape:export-ydpi="285.61627" />
    <path
       id="rect3134-0-5"
       style="fill:#b4e69e;fill-opacity:1;stroke:none;stroke-width:0.309359"
       d="m 30.9492,35.010765 v 3.49511 a 5.8765506,5.9209428 0 0 1 0.145811,-0.0193 5.8765506,5.9209428 0 0 1 5.876643,5.92081 5.8765506,5.9209428 0 0 1 -0.02408,0.49221 h 4.153445 v -4.18225 a 5.8765503,5.9209425 0 0 1 -0.483491,0.0239 5.8765503,5.9209425 0 0 1 -5.851632,-5.73049 z"
       inkscape:export-filename="/data/git/nuts/documentation/media/nuts-logo-1280.png"
       inkscape:export-xdpi="285.61627"
       inkscape:export-ydpi="285.61627" />
    <path
       id="rect3134-0-5-7"
       style="fill:#b4e69e;fill-opacity:1;stroke:none;stroke-width:0.309359"
       d="m 13.383003,35.063505 v 3.4951 a 5.8765506,5.9209428 0 0 1 0.145812,-0.0193 5.8765506,5.9209428 0 0 1 5.876645,5.92081 5.8765506,5.9209428 0 0 1 -0.02408,0.49222 h 4.153446 v -4.18225 a 5.8765503,5.9209425 0 0 1 -0.483491,0.0239 5.8765503,5.9209425 0 0 1 -5.851632,-5.73049 z"
       inkscape:export-filename="/data/git/nuts/documentation/media/nuts-logo-1280.png"
       inkscape:export-xdpi="285.61627"
       inkscape:export-ydpi="285.61627" />
    <path
       id="rect3134-3"
       style="fill:#a8e4df;fill-opacity:1;stroke:none;stroke-width:0.309359"
       d="m 19.359718,26.395778 a 5.8765506,5.9209428 0 0 1 -5.867191,5.730489 5.8765506,5.9209428 0 0 1 -0.983153,-0.130447 v 4.288775 h 4.4855 a 5.8765506,5.9209428 0 0 1 -0.06436,-0.49222 5.8765506,5.9209428 0 0 1 5.730684,-5.901493 v -3.495104 z"
       inkscape:export-filename="/data/git/nuts/documentation/media/nuts-logo-1280.png"
       inkscape:export-xdpi="285.61627"
       inkscape:export-ydpi="285.61627" />
    <path
       id="rect3134-7"
       style="fill:#b4e69e;fill-opacity:1;stroke:none;stroke-width:0.309359"
       d="m 28.307076,34.277417 a 5.8765503,5.9209425 0 0 1 0.07458,0.570208 5.8765503,5.9209425 0 0 1 -5.876644,5.92096 5.8765503,5.9209425 0 0 1 -0.297416,-0.0395 v 3.43717 h 3.817455 a 5.8765503,5.9209425 0 0 1 5.841412,-5.65234 5.8765503,5.9209425 0 0 1 0.492948,0.0654 V 34.27748 Z"
       inkscape:transform-center-x="6.8558621"
       inkscape:transform-center-y="1.0124481"
       inkscape:export-filename="/data/git/nuts/documentation/media/nuts-logo-1280.png"
       inkscape:export-xdpi="285.61627"
       inkscape:export-ydpi="285.61627" />
    <path
       id="rect3134-92"
       style="fill:#b4e69e;fill-opacity:1;stroke:none;stroke-width:0.309359"
       d="m 37.218889,25.806552 a 5.8765503,5.9209425 0 0 1 0.07458,0.570213 5.8765503,5.9209425 0 0 1 -5.876646,5.920951 5.8765503,5.9209425 0 0 1 -0.297416,-0.03953 v 3.437159 h 3.817454 a 5.8765503,5.9209425 0 0 1 5.841414,-5.652337 5.8765503,5.9209425 0 0 1 0.492947,0.06538 v -4.301843 z"
       inkscape:export-filename="/data/git/nuts/documentation/media/nuts-logo-1280.png"
       inkscape:export-xdpi="285.61627"
       inkscape:export-ydpi="285.61627" />
    <path
       id="rect3134-92-8"
       style="fill:#93d8e4;fill-opacity:1;stroke:none;stroke-width:0.309359"
       d="m 18.994429,8.1738255 a 5.8765503,5.9209425 0 0 1 0.07458,0.570215 5.8765503,5.9209425 0 0 1 -5.876647,5.9209585 5.8765503,5.9209425 0 0 1 -0.297417,-0.03953 v 3.43716 h 3.817457 a 5.8765503,5.9209425 0 0 1 5.841413,-5.652344 5.8765503,5.9209425 0 0 1 0.492949,0.06538 V 8.1738195 Z"
       inkscape:export-filename="/data/git/nuts/documentation/media/nuts-logo-1280.png"
       inkscape:export-xdpi="285.61627"
       inkscape:export-ydpi="285.61627" />
    <ellipse
       style="fill:#88d597;fill-opacity:1;stroke:none;stroke-width:0.318031;stroke-opacity:1"
       id="path846"
       cx="31.71986"
       cy="35.453484"
       rx="3.3861792"
       ry="3.2657199"
       inkscape:export-filename="/data/git/nuts/documentation/media/nuts-logo-1280.png"
       inkscape:export-xdpi="285.61627"
       inkscape:export-ydpi="285.61627" />
    <ellipse
       style="fill:#aae1c1;fill-opacity:1;stroke:none;stroke-width:0.318031"
       id="path846-7-9"
       cx="40.65815"
       cy="26.862074"
       rx="3.3861792"
       ry="3.2657199"
       inkscape:export-filename="/data/git/nuts/documentation/media/nuts-logo-1280.png"
       inkscape:export-xdpi="285.61627"
       inkscape:export-ydpi="285.61627" />
    <ellipse
       style="fill:#63c9c6;fill-opacity:1;stroke:none;stroke-width:0.318031"
       id="path846-7-9-2"
       cx="22.775171"
       cy="26.709936"
       rx="3.3861792"
       ry="3.2657199"
       inkscape:export-filename="/data/git/nuts/documentation/media/nuts-logo-1280.png"
       inkscape:export-xdpi="285.61627"
       inkscape:export-ydpi="285.61627" />
    <ellipse
       style="fill:#a8e4df;fill-opacity:1;stroke:none;stroke-width:0.318031"
       id="path846-7-9-2-9"
       cx="13.833299"
       cy="35.168961"
       rx="3.3861792"
       ry="3.2657199"
       inkscape:export-filename="/data/git/nuts/documentation/media/nuts-logo-1280.png"
       inkscape:export-xdpi="285.61627"
       inkscape:export-ydpi="285.61627" />
    <ellipse
       style="fill:#a8e4df;fill-opacity:1;stroke:none;stroke-width:0.318031"
       id="path846-7-9-2-9-2"
       cx="22.184568"
       cy="9.3922968"
       rx="3.3861792"
       ry="3.2657199"
       inkscape:export-filename="/data/git/nuts/documentation/media/nuts-logo-1280.png"
       inkscape:export-xdpi="285.61627"
       inkscape:export-ydpi="285.61627" />
    <ellipse
       style="fill:#b4e69e;fill-opacity:1;stroke:none;stroke-width:0.318031"
       id="path846-7-9-1"
       cx="40.033432"
       cy="43.836067"
       rx="3.3861792"
       ry="3.2657199"
       inkscape:export-filename="/data/git/nuts/documentation/media/nuts-logo-1280.png"
       inkscape:export-xdpi="285.61627"
       inkscape:export-ydpi="285.61627" />
    <ellipse
       style="fill:#84d8ba;fill-opacity:1;stroke:none;stroke-width:0.318031"
       id="path846-7-5"
       cx="22.682844"
       cy="43.97348"
       rx="3.3861792"
       ry="3.2657199"
       inkscape:export-filename="/data/git/nuts/documentation/media/nuts-logo-1280.png"
       inkscape:export-xdpi="285.61627"
       inkscape:export-ydpi="285.61627" />
    <ellipse
       style="fill:#93d8e4;fill-opacity:1;stroke:none;stroke-width:0.318031"
       id="path846-7-9-2-3"
       cx="13.828568"
       cy="17.795435"
       rx="3.3861792"
       ry="3.2657199"
       inkscape:export-filename="/data/git/nuts/documentation/media/nuts-logo-1280.png"
       inkscape:export-xdpi="285.61627"
       inkscape:export-ydpi="285.61627" />
    <text
       xml:space="preserve"
       style="font-style:normal;font-variant:normal;font-weight:normal;font-stretch:normal;font-size:35.4851px;line-height:1.25;font-family:'Zeroes 2';-inkscape-font-specification:'Zeroes 2, Normal';font-variant-ligatures:normal;font-variant-caps:normal;font-variant-numeric:normal;font-variant-east-asian:normal;letter-spacing:0px;word-spacing:0px;fill:#008080;fill-opacity:1;stroke:none;stroke-width:0.887129"
       x="45.464546"
       y="45.61599"
       id="text12789-52-4-6-5-7"
       transform="scale(0.96863201,1.0323838)"
       inkscape:export-filename="/data/git/nuts/documentation/media/nuts-logo-1280.png"
       inkscape:export-xdpi="285.61627"
       inkscape:export-ydpi="285.61627"><tspan
         sodipodi:role="line"
         id="tspan12787-1-9-3-7-7"
         style="font-style:normal;font-variant:normal;font-weight:normal;font-stretch:normal;font-size:35.4851px;font-family:'Zeroes 2';-inkscape-font-specification:'Zeroes 2, Normal';font-variant-ligatures:normal;font-variant-caps:normal;font-variant-numeric:normal;font-variant-east-asian:normal;fill:#008080;stroke-width:0.887129"
         x="45.464546"
         y="45.61599">Nuts</tspan></text>
    <text
       xml:space="preserve"
       style="font-style:normal;font-variant:normal;font-weight:normal;font-stretch:normal;font-size:14.4408px;line-height:1.25;font-family:FandolHei;-inkscape-font-specification:'FandolHei, Normal';font-variant-ligatures:normal;font-variant-caps:normal;font-variant-numeric:normal;font-variant-east-asian:normal;letter-spacing:0px;word-spacing:0px;fill:#008080;fill-opacity:1;stroke:none;stroke-width:0.361019"
       x="12.52103"
       y="53.87376"
       id="text12789-5"
       transform="scale(0.87246179,1.146182)"
       inkscape:export-filename="/data/git/nuts/documentation/media/nuts-logo-1280.png"
       inkscape:export-xdpi="285.61627"
       inkscape:export-ydpi="285.61627"><tspan
         sodipodi:role="line"
         id="tspan12787-2"
         style="font-style:normal;font-variant:normal;font-weight:normal;font-stretch:normal;font-size:14.4408px;font-family:FandolHei;-inkscape-font-specification:'FandolHei, Normal';font-variant-ligatures:normal;font-variant-caps:normal;font-variant-numeric:normal;font-variant-east-asian:normal;fill:#008080;stroke-width:0.361019"
         x="12.52103"
         y="53.87376">Java Package Manager</tspan></text>
    <text
       xml:space="preserve"
       style="font-style:normal;font-variant:normal;font-weight:normal;font-stretch:normal;font-size:8.32456px;line-height:1.25;font-family:FandolHei;-inkscape-font-specification:'FandolHei, Normal';font-variant-ligatures:normal;font-variant-caps:normal;font-variant-numeric:normal;font-variant-east-asian:normal;letter-spacing:0px;word-spacing:0px;fill:#008080;fill-opacity:1;stroke:none;stroke-width:0.208113"
       x="10.557782"
       y="102.46532"
       id="text12789-5-6"
       transform="scale(1.1763415,0.85009328)"
       inkscape:export-filename="/data/git/nuts/documentation/media/nuts-logo-1280.png"
       inkscape:export-xdpi="285.61627"
       inkscape:export-ydpi="285.61627"><tspan
         sodipodi:role="line"
         id="tspan12787-2-4"
         style="font-style:normal;font-variant:normal;font-weight:normal;font-stretch:normal;font-size:8.32456px;font-family:FandolHei;-inkscape-font-specification:'FandolHei, Normal';font-variant-ligatures:normal;font-variant-caps:normal;font-variant-numeric:normal;font-variant-east-asian:normal;fill:#008080;stroke-width:0.208113"
         x="10.557782"
         y="102.46532">https://thevpc.github.io/nuts</tspan></text>
    <text
       xml:space="preserve"
       style="font-style:normal;font-variant:normal;font-weight:normal;font-stretch:normal;font-size:9.47521px;line-height:1.25;font-family:FandolHei;-inkscape-font-specification:'FandolHei, Normal';font-variant-ligatures:normal;font-variant-caps:normal;font-variant-numeric:normal;font-variant-east-asian:normal;letter-spacing:0px;word-spacing:0px;fill:#b4e69e;fill-opacity:1;stroke:none;stroke-width:0.236879"
       x="13.371043"
       y="75.41687"
       id="text12789-5-6-9"
       transform="scale(0.94804315,1.0548043)"
       inkscape:export-filename="/data/git/nuts/documentation/media/nuts-logo-1280.png"
       inkscape:export-xdpi="285.61627"
       inkscape:export-ydpi="285.61627"><tspan
         sodipodi:role="line"
         id="tspan12787-2-4-3"
         style="font-style:normal;font-variant:normal;font-weight:normal;font-stretch:normal;font-size:9.47521px;font-family:FandolHei;-inkscape-font-specification:'FandolHei, Normal';font-variant-ligatures:normal;font-variant-caps:normal;font-variant-numeric:normal;font-variant-east-asian:normal;fill:#b4e69e;fill-opacity:1;stroke-width:0.236879"
         x="13.371043"
         y="75.41687">~~<tspan
   id="tspan38878"
   style="fill:#88d597;fill-opacity:1;stroke-width:0.236879">~~</tspan><tspan
   style="fill:#63c9c6;fill-opacity:1;stroke-width:0.236879"
   id="tspan29258">~~</tspan>~~<tspan
   style="fill:#88d597;fill-opacity:1;stroke-width:0.236879"
   id="tspan50390">~~</tspan>~~<tspan
   style="fill:#88d597;fill-opacity:1;stroke-width:0.236879"
   id="tspan52474">~~</tspan><tspan
   style="fill:#63c9c6;fill-opacity:1;stroke-width:0.236879"
   id="tspan56012">~~</tspan><tspan
   style="fill:#88d597;fill-opacity:1;stroke-width:0.236879"
   id="tspan61364">~~</tspan>~~<tspan
   style="fill:#88d597;fill-opacity:1;stroke-width:0.236879"
   id="tspan63148">~~</tspan></tspan></text>
  </g>
</svg>
