<?xml version="1.0" encoding="UTF-8" standalone="no"?>
<!-- Created with Inkscape (http://www.inkscape.org/) -->

<svg
   width="210mm"
   height="297mm"
   viewBox="0 0 210 297"
   version="1.1"
   id="svg5"
   inkscape:version="1.1.1 (3bf5ae0d25, 2021-09-20)"
   sodipodi:docname="nuts-icon.svg"
   inkscape:export-filename="/data/git/nuts/documentation/media/nuts-icon.png"
   inkscape:export-xdpi="57.194305"
   inkscape:export-ydpi="57.194305"
   xmlns:inkscape="http://www.inkscape.org/namespaces/inkscape"
   xmlns:sodipodi="http://sodipodi.sourceforge.net/DTD/sodipodi-0.dtd"
   xmlns="http://www.w3.org/2000/svg"
   xmlns:svg="http://www.w3.org/2000/svg">
  <sodipodi:namedview
     id="namedview7"
     pagecolor="#ffffff"
     bordercolor="#666666"
     borderopacity="1.0"
     inkscape:pageshadow="2"
     inkscape:pageopacity="0.0"
     inkscape:pagecheckerboard="0"
     inkscape:document-units="mm"
     showgrid="true"
     inkscape:zoom="0.90583672"
     inkscape:cx="458.69194"
     inkscape:cy="513.33755"
     inkscape:window-width="1680"
     inkscape:window-height="969"
     inkscape:window-x="0"
     inkscape:window-y="0"
     inkscape:window-maximized="1"
     inkscape:current-layer="layer1">
    <inkscape:grid
       type="xygrid"
       id="grid1002" />
  </sodipodi:namedview>
  <defs
     id="defs2" />
  <g
     inkscape:label="Layer 1"
     inkscape:groupmode="layer"
     id="layer1">
    <path
       id="rect3134-9"
       style="fill:#93d8e4;fill-opacity:1;stroke:none;stroke-width:1.062"
       d="m 56.62084,92.145788 v 13.232782 a 19.910608,20.594556 0 0 1 0.685228,-0.0935 19.910608,20.594556 0 0 1 19.910414,20.59409 19.910608,20.594556 0 0 1 -0.03152,0.66249 h 13.831711 v -11.97188 a 19.910607,20.594555 0 0 1 -1.692921,0.0863 19.910607,20.594555 0 0 1 -19.910928,-20.594606 19.910607,20.594555 0 0 1 0.243912,-1.915645 z" />
    <path
       id="rect3134-0"
       style="fill:#aae1c1;fill-opacity:1;stroke:none;stroke-width:1.062"
       d="m 87.312508,124.35417 v 12.15689 a 19.910608,20.594556 0 0 1 0.494027,-0.0672 19.910608,20.594556 0 0 1 19.910925,20.5941 19.910608,20.594556 0 0 1 -0.0816,1.71204 h 14.07252 v -14.54692 a 19.910607,20.594555 0 0 1 -1.63814,0.0832 19.910607,20.594555 0 0 1 -19.82617,-19.93213 z" />
    <path
       id="rect3134-0-5"
       style="fill:#b4e69e;fill-opacity:1;stroke:none;stroke-width:1.062"
       d="m 116.45181,154.07381 v 12.15688 a 19.910608,20.594556 0 0 1 0.49403,-0.0672 19.910608,20.594556 0 0 1 19.91092,20.5941 19.910608,20.594556 0 0 1 -0.0816,1.71204 h 14.07248 v -14.54692 a 19.910607,20.594555 0 0 1 -1.63814,0.0832 19.910607,20.594555 0 0 1 -19.82618,-19.93212 z" />
    <path
       id="rect3134-0-5-7"
       style="fill:#b4e69e;fill-opacity:1;stroke:none;stroke-width:1.062"
       d="m 56.934986,154.25725 v 12.15688 a 19.910608,20.594556 0 0 1 0.49403,-0.0672 19.910608,20.594556 0 0 1 19.910924,20.5941 19.910608,20.594556 0 0 1 -0.0816,1.71204 h 14.07248 v -14.54692 a 19.910607,20.594555 0 0 1 -1.63814,0.0832 19.910607,20.594555 0 0 1 -19.82618,-19.93212 z" />
    <path
       id="rect3134-3"
       style="fill:#a8e4df;fill-opacity:1;stroke:none;stroke-width:1.062"
       d="m 77.184961,124.10869 a 19.910608,20.594556 0 0 1 -19.878892,19.9321 19.910608,20.594556 0 0 1 -3.331062,-0.45371 v 14.91743 h 15.197521 a 19.910608,20.594556 0 0 1 -0.218075,-1.71204 19.910608,20.594556 0 0 1 19.416387,-20.52691 v -12.15687 z" />
    <path
       id="rect3134-7"
       style="fill:#b4e69e;fill-opacity:1;stroke:none;stroke-width:1.062"
       d="m 107.49991,151.52304 a 19.910607,20.594555 0 0 1 0.25269,1.98334 19.910607,20.594555 0 0 1 -19.910927,20.59461 19.910607,20.594555 0 0 1 -1.007689,-0.13746 v 11.95534 h 12.934095 a 19.910607,20.594555 0 0 1 19.791551,-19.66029 19.910607,20.594555 0 0 1 1.67018,0.22737 v -14.96291 z"
       inkscape:transform-center-x="23.228658"
       inkscape:transform-center-y="3.5215016" />
    <path
       id="rect3134-92"
       style="fill:#b4e69e;fill-opacity:1;stroke:none;stroke-width:1.062"
       d="m 137.69443,122.05921 a 19.910607,20.594555 0 0 1 0.2527,1.98334 19.910607,20.594555 0 0 1 -19.91093,20.5946 19.910607,20.594555 0 0 1 -1.00769,-0.13746 v 11.95534 h 12.93409 a 19.910607,20.594555 0 0 1 19.79156,-19.6603 19.910607,20.594555 0 0 1 1.67018,0.22738 v -14.9629 z" />
    <path
       id="rect3134-92-8"
       style="fill:#93d8e4;fill-opacity:1;stroke:none;stroke-width:1.062"
       d="m 75.947307,60.728069 a 19.910607,20.594555 0 0 1 0.2527,1.98334 19.910607,20.594555 0 0 1 -19.91093,20.5946 19.910607,20.594555 0 0 1 -1.00769,-0.13746 v 11.95534 h 12.93409 a 19.910607,20.594555 0 0 1 19.79156,-19.6603 19.910607,20.594555 0 0 1 1.67018,0.22738 v -14.9629 z" />
    <ellipse
       style="fill:#88d597;fill-opacity:1;stroke:none;stroke-width:1.09177;stroke-opacity:1"
       id="path846"
       cx="119.06293"
       cy="155.61368"
       rx="11.472868"
       ry="11.359011" />
    <ellipse
       style="fill:#aae1c1;fill-opacity:1;stroke:none;stroke-width:1.09177"
       id="path846-7-9"
       cx="149.34714"
       cy="125.73057"
       rx="11.472868"
       ry="11.359011" />
    <ellipse
       style="fill:#63c9c6;fill-opacity:1;stroke:none;stroke-width:1.09177"
       id="path846-7-9-2"
       cx="88.757011"
       cy="125.2014"
       rx="11.472868"
       ry="11.359011" />
    <ellipse
       style="fill:#a8e4df;fill-opacity:1;stroke:none;stroke-width:1.09177"
       id="path846-7-9-2-9"
       cx="58.460674"
       cy="154.62407"
       rx="11.472868"
       ry="11.359011" />
    <ellipse
       style="fill:#a8e4df;fill-opacity:1;stroke:none;stroke-width:1.09177"
       id="path846-7-9-2-9-2"
       cx="86.755974"
       cy="64.966225"
       rx="11.472868"
       ry="11.359011" />
    <ellipse
       style="fill:#b4e69e;fill-opacity:1;stroke:none;stroke-width:1.09177"
       id="path846-7-9-1"
       cx="147.2305"
       cy="184.7704"
       rx="11.472868"
       ry="11.359011" />
    <ellipse
       style="fill:#84d8ba;fill-opacity:1;stroke:none;stroke-width:1.09177"
       id="path846-7-5"
       cx="88.444199"
       cy="185.24846"
       rx="11.472868"
       ry="11.359011" />
    <ellipse
       style="fill:#93d8e4;fill-opacity:1;stroke:none;stroke-width:1.09177"
       id="path846-7-9-2-3"
       cx="58.444653"
       cy="94.194473"
       rx="11.472868"
       ry="11.359011" />
  </g>
</svg>
