<?xml version="1.0" encoding="iso-8859-1"?>
<!-- Generator: Adobe Illustrator 19.0.0, SVG Export Plug-In . SVG Version: 6.00 Build 0)  -->
<svg version="1.1" id="Layer_1" xmlns="http://www.w3.org/2000/svg" xmlns:xlink="http://www.w3.org/1999/xlink" x="0px" y="0px"
	 viewBox="0 0 512 512" style="enable-background:new 0 0 512 512;" xml:space="preserve">
<path style="fill:#FF822E;" d="M511.344,274.266C511.77,268.231,512,262.143,512,256C512,114.615,397.385,0,256,0S0,114.615,0,256
	c0,117.769,79.53,216.949,187.809,246.801L511.344,274.266z"/>
<path style="fill:#FC6411;" d="M511.344,274.266L314.991,77.913L119.096,434.087l68.714,68.714C209.522,508.787,232.385,512,256,512
	C391.243,512,501.976,407.125,511.344,274.266z"/>
<polygon style="fill:#FFFFFF;" points="278.328,333.913 255.711,77.913 119.096,77.913 119.096,311.652 "/>
<polygon style="fill:#E8E6E6;" points="392.904,311.652 392.904,155.826 337.252,133.565 314.991,77.913 255.711,77.913 
	256.067,333.913 "/>
<polygon style="fill:#FFFFFF;" points="314.991,155.826 314.991,77.913 392.904,155.826 "/>
<rect x="119.096" y="311.652" style="fill:#CF3E00;" width="273.809" height="122.435"/>
<g>
	<path style="fill:#FFFFFF;" d="M214.217,382.182c0,11.276-7.039,17.785-18.315,17.785c-7.491,0-13.546-3.103-18.238-8.476
		l6.205-9.006c3.784,3.936,8.022,5.904,11.125,5.904c3.557,0,5.677-2.195,5.677-6.509v-24.672h-18.163v-10.898h31.71
		L214.217,382.182L214.217,382.182z"/>
	<path style="fill:#FFFFFF;" d="M236.319,389.6l-3.859,9.763h-13.85l22.855-52.975h13.848l22.327,52.975h-14.379l-3.783-9.763
		H236.319z M247.975,359.781l-7.72,19.601h15.288L247.975,359.781z"/>
	<path style="fill:#FFFFFF;" d="M308.523,384.453h-0.378h-10.218v14.909h-13.471v-52.975h23.688c14,0,22.022,6.659,22.022,18.465
		c0,8.097-3.406,13.925-9.611,17.027l11.125,17.483h-15.285L308.523,384.453z M308.146,373.858c5.826,0,9.233-2.952,9.233-8.552
		c0-5.525-3.407-8.324-9.233-8.324h-10.218v16.877h10.218V373.858z"/>
</g>
<g>
</g>
<g>
</g>
<g>
</g>
<g>
</g>
<g>
</g>
<g>
</g>
<g>
</g>
<g>
</g>
<g>
</g>
<g>
</g>
<g>
</g>
<g>
</g>
<g>
</g>
<g>
</g>
<g>
</g>
</svg>
