<svg id="Capa_1" enable-background="new 0 0 510 510" height="512" viewBox="0 0 510 510" width="512" xmlns="http://www.w3.org/2000/svg"><path d="m505.607 441.687-54.077-54.077 30.773-30.773c8.649-8.649 3.83-23.534-8.292-25.427l-79.69-12.443c0-12.678 0-288.512 0-303.966 0-8.284-6.716-15-15-15h-364.321c-8.284-.001-15 6.715-15 14.999v364.32c0 8.284 6.716 15 15 15h303.966l12.443 79.69c1.894 12.129 16.785 16.935 25.427 8.292l30.773-30.773 54.077 54.077c5.857 5.858 15.355 5.859 21.213 0l42.707-42.707c5.858-5.857 5.858-15.355.001-21.212zm-475.607-295.744c63.248-10.419 72.892-12.723 97.036-13.219 4.481 32.469 5.568 65.246 3.247 97.864-28.799.217-42.45 3.324-100.283 12.851zm207.745-115.943c11.75 31.219 20.103 63.251 25.072 95.626-43.6-6.43-55.782-18.659-110.267-22.29-4.696-24.841-11.26-49.325-19.697-73.337zm-104.892 334.32c11.736-33.398 19.866-67.706 24.347-102.626 47.031 4.299 57.514 15.349 103.109 21.778-5.087 27.343-12.604 54.388-22.563 80.849h-104.893zm27.263-132.482c2.238-32.823 1.338-65.457-2.765-98.031 49.249 4.529 59.405 16.619 109.159 22.574 2.819 32.443 2.268 65.08-1.651 97.447-43.081-6.016-53.821-17.305-104.743-21.99zm136.536-73.385c22.659.407 45.374-1.755 67.668-6.521v97.171c-22.672 5.082-43.816 7.909-69.641 7.204 3.689-31.431 4.537-64.214 1.973-97.854zm67.668-37.25c-23.116 5.182-44.66 7.999-70.873 7.162-4.585-33.451-12.53-66.325-23.789-98.365h94.662zm-263.397-91.203c8.989 23.882 15.997 48.237 21.018 72.859-24.01.849-34.295 3.183-91.941 12.679v-85.538zm-70.923 243.844c63.52-10.464 73.018-12.739 97.171-13.222-4.772 35.122-13.52 69.886-26.247 103.698h-70.924zm239.659 90.476c8.982-25.562 15.86-51.653 20.601-78.146 24.96.983 49.732-1.167 74.06-6.368v34.476l-38.993-6.088c-10.019-1.562-18.703 7.089-17.134 17.134l6.089 38.993h-44.623zm182.634 109.467-54.077-54.077c-5.857-5.858-15.355-5.859-21.213 0l-20.507 20.507-15.491-99.212 99.212 15.491-20.507 20.507c-5.858 5.858-5.858 15.355 0 21.213l54.077 54.077z"/></svg>