<?xml version="1.0" encoding="UTF-8" standalone="no"?>
<svg
   version="1.1"
   id="Layer_1"
   x="0px"
   y="0px"
   viewBox="0 0 472 472"
   style="enable-background:new 0 0 472 472;"
   xml:space="preserve"
   sodipodi:docname="nuts-app.svg"
   inkscape:version="1.1.1 (3bf5ae0d25, 2021-09-20)"
   inkscape:export-filename="/data/git/nuts/core/nuts-runtime/src/main/resources/net/thevpc/nuts/runtime/nuts-app.png"
   inkscape:export-xdpi="96"
   inkscape:export-ydpi="96"
   xmlns:inkscape="http://www.inkscape.org/namespaces/inkscape"
   xmlns:sodipodi="http://sodipodi.sourceforge.net/DTD/sodipodi-0.dtd"
   xmlns="http://www.w3.org/2000/svg"
   xmlns:svg="http://www.w3.org/2000/svg"
   xmlns:rdf="http://www.w3.org/1999/02/22-rdf-syntax-ns#"
   xmlns:cc="http://creativecommons.org/ns#"
   xmlns:dc="http://purl.org/dc/elements/1.1/"><metadata
   id="metadata63"><rdf:RDF><cc:Work
       rdf:about=""><dc:format>image/svg+xml</dc:format><dc:type
         rdf:resource="http://purl.org/dc/dcmitype/StillImage" /><dc:title /></cc:Work></rdf:RDF></metadata><defs
   id="defs61"><inkscape:perspective
   sodipodi:type="inkscape:persp3d"
   inkscape:vp_x="0 : 236 : 1"
   inkscape:vp_y="0 : 1000 : 0"
   inkscape:vp_z="472 : 236 : 1"
   inkscape:persp3d-origin="236 : 157.33333 : 1"
   id="perspective957" />
	
	
</defs><sodipodi:namedview
   pagecolor="#ffffff"
   bordercolor="#666666"
   borderopacity="1"
   objecttolerance="10"
   gridtolerance="10"
   guidetolerance="10"
   inkscape:pageopacity="0"
   inkscape:pageshadow="2"
   inkscape:window-width="1680"
   inkscape:window-height="977"
   id="namedview59"
   showgrid="false"
   inkscape:zoom="0.42002119"
   inkscape:cx="110.7087"
   inkscape:cy="660.68096"
   inkscape:window-x="0"
   inkscape:window-y="0"
   inkscape:window-maximized="1"
   inkscape:current-layer="Layer_1"
   inkscape:document-rotation="0"
   inkscape:pagecheckerboard="0" />
<path
   style="fill:#D8BA8F;"
   d="M472,441.6c0,16.8-13.6,30.4-30.4,30.4H30.4C13.6,472,0,458.4,0,441.6V30.4C0,13.6,13.6,0,30.4,0  h410.4c16.8,0,30.4,13.6,30.4,30.4v411.2H472z"
   id="path2" />
<path
   style="fill:#C9A97F;"
   d="M0,30.4C0,13.6,13.6,0,30.4,0h410.4c16.8,0,30.4,13.6,30.4,30.4v410.4c0,16.8-13.6,30.4-30.4,30.4"
   id="path4" />
<rect
   x="174.4"
   y="4"
   style="fill:#BA966C;"
   width="123.2"
   height="149.6"
   id="rect6" />
<rect
   x="174.4"
   style="fill:#E5D3AE;"
   width="123.2"
   height="149.6"
   id="rect8" />

<polyline
   style="fill:#E0CCA0;"
   points="174.4,149.6 297.6,149.6 297.6,0 "
   id="polyline16" />

<path
   style="fill:#A58967;"
   d="M413.6,348l-32.8-32.8c-6.4-6.4-16.8-6.4-23.2,0L324,348c-6.4,6.4-6.4,16.8,0,23.2  c3.2,3.2,7.2,4.8,12,4.8c4,0,8.8-1.6,12-4.8l4.8-4.8v38.4c0,8.8,7.2,16.8,16.8,16.8c8.8,0,16.8-7.2,16.8-16.8v-38.4l4.8,4.8  c6.4,6.4,16.8,6.4,23.2,0C420,364.8,420,354.4,413.6,348z"
   id="path24" />
<path
   style="fill:#967857;"
   d="M380.8,315.2c-6.4-6.4-16.8-6.4-23.2,0L324,348c-0.8,0.8-2.4,2.4-2.4,4l22.4,22.4  c1.6-0.8,2.4-1.6,4-2.4l4.8-4.8v16l30.4,30.4c1.6-2.4,2.4-5.6,2.4-8.8v-38.4l4.8,4.8c6.4,6.4,16.8,6.4,23.2,0  c6.4-6.4,6.4-16.8,0-23.2L380.8,315.2z"
   id="path26" />
<g
   id="g28">
</g>
<g
   id="g30">
</g>
<g
   id="g32">
</g>
<g
   id="g34">
</g>
<g
   id="g36">
</g>
<g
   id="g38">
</g>
<g
   id="g40">
</g>
<g
   id="g42">
</g>
<g
   id="g44">
</g>
<g
   id="g46">
</g>
<g
   id="g48">
</g>
<g
   id="g50">
</g>
<g
   id="g52">
</g>
<g
   id="g54">
</g>
<g
   id="g56">
</g>
<text
   xml:space="preserve"
   style="font-style:normal;font-variant:normal;font-weight:bold;font-stretch:normal;font-size:59.8891px;line-height:1.25;font-family:'Serto Batnan';-inkscape-font-specification:'Serto Batnan, Bold';font-variant-ligatures:normal;font-variant-caps:normal;font-variant-numeric:normal;font-variant-east-asian:normal;letter-spacing:0px;word-spacing:0px;fill:#564532;fill-opacity:1;stroke:none;stroke-width:0.908822"
   x="179.91156"
   y="97.722321"
   id="text885"
   transform="matrix(0.9769344,0.00332318,-0.00317168,1.0235994,0,0)"><tspan
     sodipodi:role="line"
     id="tspan883"
     x="179.91156"
     y="97.722321"
     style="font-style:normal;font-variant:normal;font-weight:normal;font-stretch:normal;font-size:59.8891px;font-family:Impact;-inkscape-font-specification:'Impact, Normal';font-variant-ligatures:normal;font-variant-caps:normal;font-variant-numeric:normal;font-variant-east-asian:normal;fill:#564532;fill-opacity:1;stroke-width:0.908822">NUTS</tspan></text><text
   xml:space="preserve"
   style="font-style:normal;font-variant:normal;font-weight:normal;font-stretch:normal;font-size:175.773px;line-height:1.25;font-family:sans-serif;-inkscape-font-specification:'sans-serif, Normal';font-variant-ligatures:normal;font-variant-caps:normal;font-variant-numeric:normal;font-variant-east-asian:normal;letter-spacing:0px;word-spacing:0px;fill:#564532;fill-opacity:1;stroke:none;stroke-width:4.11967"
   x="89.485001"
   y="300.88699"
   id="text885-5"
   transform="matrix(0.95140657,0.00341235,-0.0030888,1.0510643,0,0)"><tspan
     sodipodi:role="line"
     id="tspan883-3"
     x="89.485001"
     y="300.88699"
     style="font-style:normal;font-variant:normal;font-weight:normal;font-stretch:normal;font-size:175.773px;font-family:sans-serif;-inkscape-font-specification:'sans-serif, Normal';font-variant-ligatures:normal;font-variant-caps:normal;font-variant-numeric:normal;font-variant-east-asian:normal;fill:#564532;fill-opacity:1;stroke-width:4.11967">APP</tspan></text></svg>
