<?xml version="1.0" encoding="iso-8859-1"?>
<!-- Generator: Adobe Illustrator 19.0.0, SVG Export Plug-In . SVG Version: 6.00 Build 0)  -->
<svg version="1.1" id="Layer_1" xmlns="http://www.w3.org/2000/svg" xmlns:xlink="http://www.w3.org/1999/xlink" x="0px" y="0px"
	 viewBox="0 0 511.996 511.996" style="enable-background:new 0 0 511.996 511.996;" xml:space="preserve">
<g>
	<path style="fill:#573728;" d="M277.667,203.911C260.735,122.83,204.38,52.907,122.354,23.546l0,0
		C78.693,6.421,30.839,28.534,15.47,72.937l-3.964,11.458c-39.424,126.314,25.697,268.438,145.885,317.431l0,0
		c5.314,2.11,10.681,3.61,16.049,4.59C172.053,323.658,213.181,249.303,277.667,203.911"/>
	<path style="fill:#86573E;" d="M270.597,493.613l-12.12,0.547c-46.936,2.136-84.78-36.423-85.001-83.315l0,0
		c-4.696-134.294,102.753-247.596,241.002-252.91l12.12-0.547c47.166-2.507,85.354,33.81,85.398,81.055l0,0
		C510.91,368.226,402.534,483.55,270.597,493.613"/>
	<path style="fill:#573728;" d="M496.089,189.694c-4.246-5.747-9.198-10.911-14.795-15.307c-1.359,1.483-2.322,3.337-2.357,5.5
		c-1.307,83.774-49.435,129.88-135.592,129.88h-0.644c-91.313,0.062-145.258,53.663-152.858,150.952
		c4.052,5.553,8.713,10.611,13.965,14.98c1.721-1.518,2.878-3.655,3.001-6.126c4.705-92.937,51.703-142.098,135.874-142.151h0.689
		C435.956,327.422,491.031,277.334,496.089,189.694"/>
	<path style="fill:#86573E;" d="M176.623,363.636c-38.294-35.196-46.53-86.572-22.916-145.479
		c33.607-84.621,4.017-154.394-82.953-197.447c-6.771,1.863-13.286,4.52-19.341,8.06c0.874,1.695,2.18,3.187,4.052,4.043
		c84.612,38.727,112.914,100.564,81.849,178.803c-27.516,68.626-16.128,128.742,32.071,169.287c1.448,1.218,3.187,1.792,4.935,1.942
		C174.848,376.374,175.581,369.965,176.623,363.636"/>
</g>
<g>
</g>
<g>
</g>
<g>
</g>
<g>
</g>
<g>
</g>
<g>
</g>
<g>
</g>
<g>
</g>
<g>
</g>
<g>
</g>
<g>
</g>
<g>
</g>
<g>
</g>
<g>
</g>
<g>
</g>
</svg>
