<?xml version="1.0" encoding="UTF-8" standalone="no"?>
<svg
   version="1.0"
   height="399.5pt"
   width="580pt"
   viewBox="420 552 588 405.5"
   id="svg307"
   sodipodi:docname="run2.svg"
   inkscape:version="1.1.1 (3bf5ae0d25, 2021-09-20)"
   xmlns:inkscape="http://www.inkscape.org/namespaces/inkscape"
   xmlns:sodipodi="http://sodipodi.sourceforge.net/DTD/sodipodi-0.dtd"
   xmlns="http://www.w3.org/2000/svg"
   xmlns:svg="http://www.w3.org/2000/svg">
  <sodipodi:namedview
     id="namedview309"
     pagecolor="#ffffff"
     bordercolor="#666666"
     borderopacity="1.0"
     inkscape:pageshadow="2"
     inkscape:pageopacity="0.0"
     inkscape:pagecheckerboard="0"
     inkscape:document-units="pt"
     showgrid="false"
     inkscape:zoom="0.95446141"
     inkscape:cx="359.88883"
     inkscape:cy="217.92395"
     inkscape:window-width="1680"
     inkscape:window-height="977"
     inkscape:window-x="0"
     inkscape:window-y="0"
     inkscape:window-maximized="1"
     inkscape:current-layer="svg307" />
  <defs
     id="defs4">
    <style
       type="text/css"
       id="style2">
            @font-face {
                font-family: 'noto_regular';
                src: url('https://app.creately.com/diagram/assets/fonts/noto/noto-regular.woff') format('woff'),
                     url('https://app.creately.com/diagram/assets/fonts/noto/noto-regular.woff2') format('woff2');
                font-weight: normal;
                font-style: normal;
            }
        p {
            margin: 0;
        }
        </style>
  </defs>
  <defs
     id="defs8">
    <style
       id="style6">
            span{ display: inline-block; }
        </style>
  </defs>
  <g
     transform="translate(439.7747,555)"
     id="g20">
    <path
       d="m 0.75,0.75 h 548.49999 v 398 H 0.75 Z"
       fill="#f2f2f2"
       stroke="#cccccc"
       stroke-width="1.5"
       stroke-linecap="round"
       stroke-linejoin="round"
       id="path10" />
    <path
       d="m 0.75,25.75 h 548.49999 v 373 H 0.75 Z"
       fill="#ffffff"
       stroke="#cccccc"
       stroke-width="1.5"
       stroke-linecap="round"
       stroke-linejoin="round"
       id="path12" />
    <path
       d="m 529.99999,9.25 8,8 m 0,-8 -8,8"
       fill="#ffffff"
       stroke="#4b4b4b"
       stroke-width="1.5"
       stroke-linecap="round"
       stroke-linejoin="round"
       id="path14" />
    <path
       d="m 512.99999,10.25 h 10 m -10,-1 h 10 v 8 h -10 v -8"
       fill="none"
       stroke="#4b4b4b"
       stroke-width="1.5"
       stroke-linecap="round"
       stroke-linejoin="round"
       id="path16" />
    <path
       d="m 496.99999,17.75 h 10"
       fill="none"
       stroke="#4b4b4b"
       stroke-width="1.5"
       stroke-linecap="round"
       stroke-linejoin="round"
       id="path18" />
  </g>
  <g
     id="19emnff0i8"
     transform="translate(-15.225281)">
    <g
       transform="translate(769,915)"
       id="g41">
      <path
         d="M 0,0 H 80 V 25 H 0 Z"
         fill="#cccccc"
         stroke="#cccccc"
         stroke-width="1.5"
         id="path39" />
    </g>
    <g
       transform="translate(786.4,915.8)"
       width="40"
       height="19"
       id="g47">
      <text
         text-decoration="none"
         x="0"
         fill="#4b4b4b"
         font-size="12px"
         font-family="Lato"
         y="15"
         id="text43"
         style="text-decoration:none;text-decoration-line:none">Install </text>
      <text
         text-decoration="none"
         x="36"
         fill="#4b4b4b"
         font-size="13.3333px"
         font-family="noto_regular"
         y="15"
         id="text45"
         style="text-decoration:none;text-decoration-line:none" />
    </g>
  </g>
  <g
     id="2lsewhmo44"
     transform="translate(-15.225281)">
    <g
       transform="translate(885,915)"
       id="g52">
      <path
         d="M 0,0 H 80 V 25 H 0 Z"
         fill="#3673b6"
         stroke-width="1.5"
         id="path50" />
    </g>
    <g
       transform="translate(891.95,915.8)"
       width="63"
       height="19"
       id="g60">
      <text
         text-decoration="none"
         x="0"
         fill="#ffffff"
         font-size="12px"
         font-family="Lato"
         y="15"
         id="text54"
         style="text-decoration:none;text-decoration-line:none">Final </text>
      <text
         text-decoration="none"
         x="30"
         fill="#ffffff"
         font-size="12px"
         font-family="Lato"
         y="15"
         id="text56"
         style="text-decoration:none;text-decoration-line:none">Step </text>
      <text
         text-decoration="none"
         x="57"
         fill="#4b4b4b"
         font-size="13.3333px"
         font-family="noto_regular"
         y="15"
         id="text58"
         style="text-decoration:none;text-decoration-line:none" />
    </g>
  </g>
  <g
     id="rxne13sgig"
     transform="translate(-15.225281)">
    <g
       transform="translate(650,915)"
       id="g65">
      <path
         d="M 0,0 H 80 V 25 H 0 Z"
         fill="#cccccc"
         stroke="#cccccc"
         stroke-width="1.5"
         id="path63" />
    </g>
    <g
       transform="translate(665.2,915.8)"
       width="47"
       height="19"
       id="g73">
      <text
         text-decoration="none"
         x="0"
         fill="#4b4b4b"
         font-size="12px"
         font-family="Lato"
         y="15"
         id="text67"
         style="text-decoration:none;text-decoration-line:none">&lt; </text>
      <text
         text-decoration="none"
         x="9"
         fill="#4b4b4b"
         font-size="12px"
         font-family="Lato"
         y="15"
         id="text69"
         style="text-decoration:none;text-decoration-line:none">Back </text>
      <text
         text-decoration="none"
         x="38"
         fill="#4b4b4b"
         font-size="13.3333px"
         font-family="noto_regular"
         y="15"
         id="text71"
         style="text-decoration:none;text-decoration-line:none" />
    </g>
  </g>
  <g
     id="98apk1vxev"
     style="fill:none"
     transform="translate(-15.225281)">
    <g
       transform="translate(465,580)"
       id="g78"
       style="fill:none">
      <rect
         x="0"
         y="0"
         width="322.99997"
         height="40.006863"
         fill="rgba(255,255,255,0.01)"
         stroke="rgba(255,255,255,0.01)"
         stroke-width="NaN"
         stroke-linecap="round"
         stroke-linejoin="round"
         id="rect76"
         style="fill:none" />
    </g>
    <g
       transform="translate(513.99999,590.50343)"
       width="225"
       height="19"
       id="g90"
       style="fill:none">
      <text
         text-decoration="none"
         x="24"
         fill="rgb(75, 75, 75)"
         font-weight="bold"
         font-size="13.3333px"
         font-family="Lato"
         y="15"
         id="text80"
         style="text-decoration:none;text-decoration-line:none;fill:none">Installing </text>
      <text
         text-decoration="none"
         x="79"
         fill="rgb(75, 75, 75)"
         font-weight="bold"
         font-size="13.3333px"
         font-family="Lato"
         y="15"
         id="text82"
         style="text-decoration:none;text-decoration-line:none;fill:none">Software </text>
      <text
         text-decoration="none"
         x="135"
         fill="rgb(75, 75, 75)"
         font-weight="bold"
         font-size="13.3333px"
         font-family="Lato"
         y="15"
         id="text84"
         style="text-decoration:none;text-decoration-line:none;fill:none">Version </text>
      <text
         text-decoration="none"
         x="183"
         fill="rgb(75, 75, 75)"
         font-weight="bold"
         font-size="13.3333px"
         font-family="Lato"
         y="15"
         id="text86"
         style="text-decoration:none;text-decoration-line:none;fill:none">5.2</text>
      <text
         text-decoration="none"
         x="201"
         fill="#4b4b4b"
         font-size="13.3333px"
         font-family="noto_regular"
         y="15"
         id="text88"
         style="text-decoration:none;text-decoration-line:none;fill:none" />
    </g>
  </g>
  <g
     id="wf8z2vh83h"
     transform="translate(-15.225281)">
    <g
       transform="translate(455.2,893)"
       id="g95">
      <path
         d="M 1.3725005,0.16666412 H 547.62771 v 0.6666565 H 1.3725005 Z"
         fill="#cccccc"
         stroke="#cccccc"
         stroke-width="1"
         vector-effect="non-scaling-stroke"
         id="path93" />
    </g>
  </g>
  <g
     id="1db14xhrof"
     transform="translate(-15.225281)">
    <g
       transform="translate(455,640)"
       id="g100">
      <path
         d="m 1.375,0.16666412 h 547.25 v 0.6666565 H 1.375 Z"
         fill="#cccccc"
         stroke="#cccccc"
         stroke-width="1"
         vector-effect="non-scaling-stroke"
         id="path98" />
    </g>
  </g>
  <g
     id="4cs8nhuzvy"
     style="fill:none">
    <g
       transform="translate(425 605)"
       id="g116"
       style="fill:none">
      <rect
         x="0"
         y="0"
         width="384.9998474121094"
         height="28.33941650390625"
         fill="rgba(255,255,255,0.01)"
         stroke="rgba(255,255,255,0.01)"
         stroke-width="NaN"
         stroke-linecap="round"
         stroke-linejoin="round"
         id="rect114"
         style="fill:none" />
    </g>
    <g
       transform="translate(452.4999237060547, 609.6697082519531) rotate(0, 165, 9.5)"
       width="330"
       height="19"
       id="g136"
       style="fill:none">
      <text
         text-decoration="none"
         x="19"
         fill="rgb(0, 0, 0)"
         font-size="9pt"
         font-family="Lato"
         y="15"
         id="text118"
         style="fill:none">The </text>
      <text
         text-decoration="none"
         x="42"
         fill="rgb(0, 0, 0)"
         font-size="9pt"
         font-family="Lato"
         y="15"
         id="text120"
         style="fill:none">program </text>
      <text
         text-decoration="none"
         x="92"
         fill="rgb(0, 0, 0)"
         font-size="9pt"
         font-family="Lato"
         y="15"
         id="text122"
         style="fill:none">features </text>
      <text
         text-decoration="none"
         x="139"
         fill="rgb(0, 0, 0)"
         font-size="9pt"
         font-family="Lato"
         y="15"
         id="text124"
         style="fill:none">you </text>
      <text
         text-decoration="none"
         x="162"
         fill="rgb(0, 0, 0)"
         font-size="9pt"
         font-family="Lato"
         y="15"
         id="text126"
         style="fill:none">selected </text>
      <text
         text-decoration="none"
         x="209"
         fill="rgb(0, 0, 0)"
         font-size="9pt"
         font-family="Lato"
         y="15"
         id="text128"
         style="fill:none">are </text>
      <text
         text-decoration="none"
         x="229"
         fill="rgb(0, 0, 0)"
         font-size="9pt"
         font-family="Lato"
         y="15"
         id="text130"
         style="fill:none">being </text>
      <text
         text-decoration="none"
         x="262"
         fill="rgb(0, 0, 0)"
         font-size="9pt"
         font-family="Lato"
         y="15"
         id="text132"
         style="fill:none">installed.</text>
      <text
         text-decoration="none"
         x="311"
         fill="#4b4b4b"
         font-size="10pt"
         font-family="noto_regular"
         y="15"
         id="text134"
         style="fill:none" />
    </g>
  </g>
  <g
     id="5nj3vrmp1i"
     transform="matrix(0.81578822,0,0,0.99297468,205.95708,5.3392408)">
    <g
       transform="translate(528,750)"
       id="g182">
      <path
         d="M 1,1 H 288.4 V 19 H 1 Z"
         fill="#3498db"
         stroke="#3498db"
         stroke-width="2"
         stroke-linecap="round"
         stroke-linejoin="round"
         stroke-dasharray="none"
         id="path178" />
      <path
         d="M 288.4,1 H 411 V 19 H 288.4 Z"
         fill="#ffffff"
         stroke="#3498db"
         stroke-width="2"
         stroke-linecap="round"
         stroke-linejoin="round"
         stroke-dasharray="none"
         id="path180" />
    </g>
    <g
       transform="translate(816.40001,752)"
       width="28"
       height="19"
       id="g188">
      <text
         text-decoration="none"
         x="0"
         fill="#5c5c5c"
         font-size="10.6667px"
         font-family="Lato"
         y="15"
         id="text184"
         style="text-decoration:none;text-decoration-line:none">70% </text>
      <text
         text-decoration="none"
         x="23"
         fill="#4b4b4b"
         font-size="13.3333px"
         font-family="noto_regular"
         y="15"
         id="text186"
         style="text-decoration:none;text-decoration-line:none" />
    </g>
  </g>
  <g
     id="4kujx9m1yn"
     style="fill:none"
     transform="translate(-15.225281)">
    <g
       transform="translate(521,700)"
       id="g193"
       style="fill:none">
      <rect
         x="0"
         y="0"
         width="449.99863"
         height="44.339478"
         fill="rgba(255,255,255,0.01)"
         stroke="rgba(255,255,255,0.01)"
         stroke-width="NaN"
         stroke-linecap="round"
         stroke-linejoin="round"
         id="rect191"
         style="fill:none" />
    </g>
    <g
       transform="translate(695.99932,705.66974)"
       width="100"
       height="33"
       id="g207"
       style="fill:none">
      <text
         text-decoration="none"
         x="32"
         fill="rgb(75, 75, 75)"
         font-size="10.6667px"
         font-family="Lato"
         y="10"
         id="text195"
         style="text-decoration:none;text-decoration-line:none;fill:none">Status:</text>
      <text
         text-decoration="none"
         x="68"
         fill="rgb(75, 75, 75)"
         font-size="10.6667px"
         font-family="Lato"
         y="10"
         id="text197"
         style="text-decoration:none;text-decoration-line:none;fill:none" />
      <text
         text-decoration="none"
         x="7"
         fill="rgb(75, 75, 75)"
         font-size="10.6667px"
         font-family="Lato"
         y="29"
         id="text199"
         style="text-decoration:none;text-decoration-line:none;fill:none">Copying </text>
      <text
         text-decoration="none"
         x="49"
         fill="rgb(75, 75, 75)"
         font-size="10.6667px"
         font-family="Lato"
         y="29"
         id="text201"
         style="text-decoration:none;text-decoration-line:none;fill:none">new </text>
      <text
         text-decoration="none"
         x="72"
         fill="rgb(75, 75, 75)"
         font-size="10.6667px"
         font-family="Lato"
         y="29"
         id="text203"
         style="text-decoration:none;text-decoration-line:none;fill:none">files</text>
      <text
         text-decoration="none"
         x="93"
         fill="#4b4b4b"
         font-size="13.3333px"
         font-family="noto_regular"
         y="29"
         id="text205"
         style="text-decoration:none;text-decoration-line:none;fill:none" />
    </g>
  </g>
  <g
     inkscape:label="Layer 1"
     id="layer1"
     transform="matrix(1.5359745,0,0,1.5276877,373.97543,575.68388)">
    <path
       id="rect3134-9"
       style="fill:#93d8e4;fill-opacity:1;stroke:none;stroke-width:1.062"
       d="m 56.62084,92.145788 v 13.232782 a 19.910608,20.594556 0 0 1 0.685228,-0.0935 19.910608,20.594556 0 0 1 19.910414,20.59409 19.910608,20.594556 0 0 1 -0.03152,0.66249 h 13.831711 v -11.97188 a 19.910607,20.594555 0 0 1 -1.692921,0.0863 19.910607,20.594555 0 0 1 -19.910928,-20.594606 19.910607,20.594555 0 0 1 0.243912,-1.915645 z" />
    <path
       id="rect3134-0"
       style="fill:#aae1c1;fill-opacity:1;stroke:none;stroke-width:1.062"
       d="m 87.312508,124.35417 v 12.15689 a 19.910608,20.594556 0 0 1 0.494027,-0.0672 19.910608,20.594556 0 0 1 19.910925,20.5941 19.910608,20.594556 0 0 1 -0.0816,1.71204 h 14.07252 v -14.54692 a 19.910607,20.594555 0 0 1 -1.63814,0.0832 19.910607,20.594555 0 0 1 -19.82617,-19.93213 z" />
    <path
       id="rect3134-0-5"
       style="fill:#b4e69e;fill-opacity:1;stroke:none;stroke-width:1.062"
       d="m 116.45181,154.07381 v 12.15688 a 19.910608,20.594556 0 0 1 0.49403,-0.0672 19.910608,20.594556 0 0 1 19.91092,20.5941 19.910608,20.594556 0 0 1 -0.0816,1.71204 h 14.07248 v -14.54692 a 19.910607,20.594555 0 0 1 -1.63814,0.0832 19.910607,20.594555 0 0 1 -19.82618,-19.93212 z" />
    <path
       id="rect3134-0-5-7"
       style="fill:#b4e69e;fill-opacity:1;stroke:none;stroke-width:1.062"
       d="m 56.934986,154.25725 v 12.15688 a 19.910608,20.594556 0 0 1 0.49403,-0.0672 19.910608,20.594556 0 0 1 19.910924,20.5941 19.910608,20.594556 0 0 1 -0.0816,1.71204 h 14.07248 v -14.54692 a 19.910607,20.594555 0 0 1 -1.63814,0.0832 19.910607,20.594555 0 0 1 -19.82618,-19.93212 z" />
    <path
       id="rect3134-3"
       style="fill:#a8e4df;fill-opacity:1;stroke:none;stroke-width:1.062"
       d="m 77.184961,124.10869 a 19.910608,20.594556 0 0 1 -19.878892,19.9321 19.910608,20.594556 0 0 1 -3.331062,-0.45371 v 14.91743 h 15.197521 a 19.910608,20.594556 0 0 1 -0.218075,-1.71204 19.910608,20.594556 0 0 1 19.416387,-20.52691 v -12.15687 z" />
    <path
       id="rect3134-7"
       style="fill:#b4e69e;fill-opacity:1;stroke:none;stroke-width:1.062"
       d="m 107.49991,151.52304 a 19.910607,20.594555 0 0 1 0.25269,1.98334 19.910607,20.594555 0 0 1 -19.910927,20.59461 19.910607,20.594555 0 0 1 -1.007689,-0.13746 v 11.95534 h 12.934095 a 19.910607,20.594555 0 0 1 19.791551,-19.66029 19.910607,20.594555 0 0 1 1.67018,0.22737 v -14.96291 z"
       inkscape:transform-center-x="23.228658"
       inkscape:transform-center-y="3.5215016" />
    <path
       id="rect3134-92"
       style="fill:#b4e69e;fill-opacity:1;stroke:none;stroke-width:1.062"
       d="m 137.69443,122.05921 a 19.910607,20.594555 0 0 1 0.2527,1.98334 19.910607,20.594555 0 0 1 -19.91093,20.5946 19.910607,20.594555 0 0 1 -1.00769,-0.13746 v 11.95534 h 12.93409 a 19.910607,20.594555 0 0 1 19.79156,-19.6603 19.910607,20.594555 0 0 1 1.67018,0.22738 v -14.9629 z" />
    <path
       id="rect3134-92-8"
       style="fill:#93d8e4;fill-opacity:1;stroke:none;stroke-width:1.062"
       d="m 75.947307,60.728069 a 19.910607,20.594555 0 0 1 0.2527,1.98334 19.910607,20.594555 0 0 1 -19.91093,20.5946 19.910607,20.594555 0 0 1 -1.00769,-0.13746 v 11.95534 h 12.93409 a 19.910607,20.594555 0 0 1 19.79156,-19.6603 19.910607,20.594555 0 0 1 1.67018,0.22738 v -14.9629 z" />
    <ellipse
       style="fill:#88d597;fill-opacity:1;stroke:none;stroke-width:1.09177;stroke-opacity:1"
       id="path846"
       cx="119.06293"
       cy="155.61368"
       rx="11.472868"
       ry="11.359011" />
    <ellipse
       style="fill:#aae1c1;fill-opacity:1;stroke:none;stroke-width:1.09177"
       id="path846-7-9"
       cx="149.34714"
       cy="125.73057"
       rx="11.472868"
       ry="11.359011" />
    <ellipse
       style="fill:#63c9c6;fill-opacity:1;stroke:none;stroke-width:1.09177"
       id="path846-7-9-2"
       cx="88.757011"
       cy="125.2014"
       rx="11.472868"
       ry="11.359011" />
    <ellipse
       style="fill:#a8e4df;fill-opacity:1;stroke:none;stroke-width:1.09177"
       id="path846-7-9-2-9"
       cx="58.460674"
       cy="154.62407"
       rx="11.472868"
       ry="11.359011" />
    <ellipse
       style="fill:#a8e4df;fill-opacity:1;stroke:none;stroke-width:1.09177"
       id="path846-7-9-2-9-2"
       cx="86.755974"
       cy="64.966225"
       rx="11.472868"
       ry="11.359011" />
    <ellipse
       style="fill:#b4e69e;fill-opacity:1;stroke:none;stroke-width:1.09177"
       id="path846-7-9-1"
       cx="147.2305"
       cy="184.7704"
       rx="11.472868"
       ry="11.359011" />
    <ellipse
       style="fill:#84d8ba;fill-opacity:1;stroke:none;stroke-width:1.09177"
       id="path846-7-5"
       cx="88.444199"
       cy="185.24846"
       rx="11.472868"
       ry="11.359011" />
    <ellipse
       style="fill:#93d8e4;fill-opacity:1;stroke:none;stroke-width:1.09177"
       id="path846-7-9-2-3"
       cx="58.444653"
       cy="94.194473"
       rx="11.472868"
       ry="11.359011" />
  </g>
</svg>
