<?xml version="1.0" encoding="iso-8859-1"?>
<!-- Generator: Adobe Illustrator 19.0.0, SVG Export Plug-In . SVG Version: 6.00 Build 0)  -->
<svg version="1.1" id="Layer_1" xmlns="http://www.w3.org/2000/svg" xmlns:xlink="http://www.w3.org/1999/xlink" x="0px" y="0px"
	 viewBox="0 0 511.987 511.987" style="enable-background:new 0 0 511.987 511.987;" xml:space="preserve">
<g>
	<path style="fill:#ED5564;" d="M281.806,416.01H181.332c-5.891,0-10.671-4.781-10.671-10.672s4.781-10.656,10.671-10.656h100.474
		c5.875,0,10.656,4.766,10.656,10.656S287.681,416.01,281.806,416.01z"/>
	<path style="fill:#ED5564;" d="M129.481,330.683H31.999c-5.891,0-10.671-4.781-10.671-10.672s4.781-10.672,10.671-10.672h97.482
		c5.898,0,10.672,4.781,10.672,10.672S135.38,330.683,129.481,330.683z"/>
	<path style="fill:#ED5564;" d="M60.147,245.342H10.664C4.773,245.342,0,240.569,0,234.678s4.773-10.672,10.664-10.672h49.483
		c5.89,0,10.664,4.781,10.664,10.672S66.037,245.342,60.147,245.342z"/>
	<path style="fill:#ED5564;" d="M96.209,160.008H53.327c-5.891,0-10.664-4.773-10.664-10.664s4.773-10.671,10.664-10.671h42.882
		c5.891,0,10.664,4.781,10.664,10.671S102.099,160.008,96.209,160.008z"/>
</g>
<path style="fill:#FC6E51;" d="M504.363,313.793c-6.531-11.343-22.577-18.483-50.468-22.499
	c-19.594-2.828-40.624-3.422-54.811-3.422c-1.891,0-3.562,0.016-5.016,0.031L296.836,143.39c-2.375-3.546-6.656-5.328-10.844-4.523
	c-14.391,2.766-28.266,4.164-41.241,4.164c-29.617,0-54.92-7.039-75.217-20.921c-14.742-10.086-21.359-20.344-21.734-20.938
	c-2.953-5.046-9.359-6.664-14.438-3.75c-0.844,0.477-20.781,12.085-41.835,40.194c-12.179,16.257-22.351,34.835-30.233,55.209
	c-9.773,25.272-16.031,53.405-18.593,83.623c-0.352,4.156,1.765,8.156,5.414,10.203l228.471,127.997
	c1.594,0.891,3.375,1.359,5.219,1.359h213.323c4.984,0,9.312-3.453,10.406-8.328C507.051,400.916,519.956,340.808,504.363,313.793z"
	/>
<g>
	<g>
		<path id="SVGCleanerId_0" style="fill:#CCD1D9;" d="M505.535,407.682c0.703-3.078,3.75-17.266,5.391-34.343H330.664h-37.421
			L48.007,238.873c-2.43,12.102-4.211,24.641-5.304,37.577c-0.352,4.156,1.765,8.156,5.414,10.203L276.588,414.65
			c1.594,0.891,3.375,1.359,5.219,1.359H495.13C500.113,416.01,504.441,412.556,505.535,407.682z"/>
	</g>
	<g>
		<path id="SVGCleanerId_0_1_" style="fill:#CCD1D9;" d="M505.535,407.682c0.703-3.078,3.75-17.266,5.391-34.343H330.664h-37.421
			L48.007,238.873c-2.43,12.102-4.211,24.641-5.304,37.577c-0.352,4.156,1.765,8.156,5.414,10.203L276.588,414.65
			c1.594,0.891,3.375,1.359,5.219,1.359H495.13C500.113,416.01,504.441,412.556,505.535,407.682z"/>
	</g>
	<g>
		<path id="SVGCleanerId_0_2_" style="fill:#CCD1D9;" d="M505.535,407.682c0.703-3.078,3.75-17.266,5.391-34.343H330.664h-37.421
			L48.007,238.873c-2.43,12.102-4.211,24.641-5.304,37.577c-0.352,4.156,1.765,8.156,5.414,10.203L276.588,414.65
			c1.594,0.891,3.375,1.359,5.219,1.359H495.13C500.113,416.01,504.441,412.556,505.535,407.682z"/>
	</g>
	<g>
		<path id="SVGCleanerId_0_3_" style="fill:#CCD1D9;" d="M505.535,407.682c0.703-3.078,3.75-17.266,5.391-34.343H330.664h-37.421
			L48.007,238.873c-2.43,12.102-4.211,24.641-5.304,37.577c-0.352,4.156,1.765,8.156,5.414,10.203L276.588,414.65
			c1.594,0.891,3.375,1.359,5.219,1.359H495.13C500.113,416.01,504.441,412.556,505.535,407.682z"/>
	</g>
</g>
<g>
	<path id="SVGCleanerId_0_4_" style="fill:#E6E9ED;" d="M505.535,407.682c0.703-3.078,3.75-17.266,5.391-34.343H330.664h-37.421
		L48.007,238.873c-2.43,12.102-4.211,24.641-5.304,37.577c-0.352,4.156,1.765,8.156,5.414,10.203L276.588,414.65
		c1.594,0.891,3.375,1.359,5.219,1.359H495.13C500.113,416.01,504.441,412.556,505.535,407.682z"/>
</g>
<path style="fill:#E9573F;" d="M296.837,143.39c-2.375-3.546-6.656-5.328-10.844-4.523c-14.391,2.766-28.266,4.164-41.241,4.164
	c-29.617,0-54.92-7.039-75.217-20.921c-14.742-10.086-21.359-20.344-21.734-20.938c-2.953-5.046-9.359-6.664-14.438-3.75
	c-0.602,0.344-10.96,6.367-24.5,20.039c0.062,0.094,60.296,84.482,205.41,51.827L296.837,143.39z"/>
<g>
	<path style="fill:#434A54;" d="M317.524,236.342c1.656,0,3.312-0.383,4.874-1.18l24.14-12.43c0.938-0.477,1.766-1.086,2.484-1.781
		l-11.718-17.421c-0.172,0.078-0.344,0.148-0.531,0.234l-24.14,12.43c-5.234,2.694-7.297,9.124-4.609,14.358
		C309.931,234.232,313.649,236.342,317.524,236.342z"/>
	<path style="fill:#434A54;" d="M336.086,264.615c1.656,0,3.312-0.375,4.875-1.18l24.14-12.43c1.062-0.539,1.984-1.242,2.766-2.055
		l-11.656-17.312c-0.281,0.125-0.578,0.25-0.875,0.398l-24.14,12.43c-5.234,2.695-7.297,9.125-4.609,14.367
		C328.492,262.506,332.211,264.615,336.086,264.615z"/>
	<path style="fill:#434A54;" d="M354.647,291.981c1.641,0,3.312-0.375,4.875-1.188l24.125-12.422
		c1.031-0.516,1.922-1.188,2.688-1.953l-11.672-17.366c-0.266,0.109-0.516,0.219-0.766,0.352l-24.141,12.421
		c-5.234,2.703-7.296,9.141-4.609,14.375C347.054,289.872,350.772,291.981,354.647,291.981z"/>
</g>
<g>
	<path style="fill:#CCD1D9;" d="M447.989,416.01h21.344c0-5.891-4.781-10.672-10.672-10.672S447.989,410.119,447.989,416.01z"/>
	<path style="fill:#CCD1D9;" d="M405.335,416.01h21.327c0-5.891-4.781-10.672-10.672-10.672S405.335,410.119,405.335,416.01z"/>
	<path style="fill:#CCD1D9;" d="M362.663,416.01h21.328c0-5.891-4.781-10.672-10.656-10.672
		C367.429,405.338,362.663,410.119,362.663,416.01z"/>
	<path style="fill:#CCD1D9;" d="M341.336,416.01c0-5.891-4.781-10.672-10.672-10.672s-10.671,4.781-10.671,10.672H341.336z"/>
	<path style="fill:#CCD1D9;" d="M281.806,416.01h16.859c-0.016-5.891-4.781-10.672-10.672-10.672
		c-5.562,0-10.125,4.266-10.625,9.703C278.759,415.682,280.274,416.01,281.806,416.01z"/>
	<path style="fill:#CCD1D9;" d="M116.661,308.308c-5.125-2.891-11.632-1.078-14.531,4.047l-1.945,3.469l18.609,10.422l1.922-3.406
		C123.607,317.715,121.794,311.215,116.661,308.308z"/>
	<path style="fill:#CCD1D9;" d="M81.006,288.2c-5.133-2.891-11.633-1.078-14.531,4.047l-2.008,3.562l18.609,10.421l1.977-3.499
		C87.951,297.606,86.139,291.091,81.006,288.2z"/>
	<path style="fill:#CCD1D9;" d="M259.29,388.76c-5.131-2.891-11.639-1.078-14.53,4.047l-1.719,3.047l18.608,10.438l1.688-3
		C266.235,398.166,264.423,391.65,259.29,388.76z"/>
	<path style="fill:#CCD1D9;" d="M223.636,368.651c-5.133-2.891-11.64-1.078-14.531,4.047l-1.781,3.156l18.617,10.421l1.742-3.093
		C230.581,378.057,228.761,371.542,223.636,368.651z"/>
	<path style="fill:#CCD1D9;" d="M187.98,348.543c-5.133-2.891-11.641-1.078-14.531,4.047l-1.836,3.25l18.609,10.421l1.805-3.188
		C194.917,357.933,193.105,351.433,187.98,348.543z"/>
	<path style="fill:#CCD1D9;" d="M151.856,328.183c-5.218-2.734-11.664-0.703-14.39,4.516l-1.617,3.109l18.617,10.422l1.914-3.656
		C159.106,337.34,157.082,330.902,151.856,328.183z"/>
</g>
<g>
</g>
<g>
</g>
<g>
</g>
<g>
</g>
<g>
</g>
<g>
</g>
<g>
</g>
<g>
</g>
<g>
</g>
<g>
</g>
<g>
</g>
<g>
</g>
<g>
</g>
<g>
</g>
<g>
</g>
</svg>
